<svg width="25" height="20" viewBox="0 0 25 20" fill="none" xmlns="http://www.w3.org/2000/svg">
<path d="M2.34375 0.5H3.90625C5.03279 0.500028 5.74805 1.21304 5.74805 1.87305V18.1006C5.74805 18.759 5.0329 19.4717 3.9043 19.4717H2.3418C1.21386 19.4715 0.5 18.7593 0.5 18.1006V1.87305C0.5 1.21303 1.21405 0.5 2.34375 0.5ZM10.1533 0.5H11.7158C12.8435 0.500167 13.5576 1.21292 13.5576 1.87305V18.1006C13.5576 18.7592 12.8438 19.4717 11.7139 19.4717H10.1514C9.02457 19.4717 8.30957 18.7592 8.30957 18.1006V1.87305C8.30957 1.21322 9.02495 0.5 10.1533 0.5ZM19.4004 4.25586C19.6616 4.28301 19.9101 4.35207 20.1299 4.45605C20.2947 4.53405 20.4387 4.62992 20.5596 4.7373L20.6729 4.84863C20.7776 4.96316 20.8562 5.08522 20.9092 5.20996L20.9531 5.33496L24.46 17.5342C24.6251 18.1113 24.243 18.8292 23.3252 19.0928L23.1348 19.1396L21.5957 19.4521H21.5947C21.4048 19.4908 21.2084 19.5065 21.0127 19.498L20.8174 19.4814C20.6229 19.4571 20.4364 19.4095 20.2646 19.3418L20.0977 19.2676C19.9361 19.1867 19.7955 19.0885 19.6787 18.9795L19.5703 18.8672C19.4699 18.7516 19.3957 18.6287 19.3467 18.5039L19.3057 18.3789L16.1768 6.12891C16.1094 5.86216 16.1501 5.57957 16.3096 5.31836L16.3848 5.20801C16.6103 4.91158 16.9875 4.67169 17.459 4.56445L17.458 4.56348L18.6221 4.30176H18.623C18.8117 4.25909 19.0077 4.23979 19.2041 4.24414L19.4004 4.25586ZM19.3018 4.49902C19.1827 4.48679 19.0619 4.48895 18.9434 4.50586L18.8262 4.52734L17.6631 4.79004H17.6621C17.4123 4.847 17.1739 4.97287 16.9951 5.16504L16.9219 5.25098C16.7574 5.46719 16.679 5.7359 16.7148 6.00879L16.7373 6.125V6.12695L19.8672 18.377V18.3789C19.8989 18.5012 19.9525 18.6141 20.0225 18.7148L20.0977 18.8115C20.1778 18.9036 20.272 18.9816 20.374 19.0449L20.4785 19.1035C20.6213 19.1749 20.7768 19.2206 20.9346 19.2402C21.0922 19.2598 21.2535 19.2534 21.4092 19.2217L21.4082 19.2207L22.9473 18.9092H22.9482C23.2447 18.8486 23.5283 18.6925 23.7188 18.4434C23.8894 18.2199 23.9676 17.9411 23.9238 17.6602L23.8975 17.5391V17.5381L20.3926 5.33691V5.33594L20.3506 5.21777C20.3179 5.14133 20.276 5.06995 20.2275 5.00391L20.1494 4.90918C20.0667 4.81896 19.971 4.74271 19.8672 4.68164L19.7617 4.62598C19.617 4.55771 19.4603 4.51532 19.3018 4.49902ZM2.34375 0.74707C2.07396 0.74707 1.80108 0.821882 1.57324 0.97168L1.47852 1.04004C1.2312 1.23798 1.0625 1.53417 1.0625 1.87305V18.1016C1.06324 18.3977 1.19258 18.6612 1.39062 18.8545L1.47949 18.9326C1.72388 19.1277 2.03598 19.2246 2.34375 19.2246H3.90723C4.17642 19.2241 4.44853 19.1496 4.67578 19L4.77051 18.9316C5.01742 18.7337 5.18552 18.4381 5.18555 18.0996V1.87402C5.18555 1.57745 5.05649 1.31391 4.8584 1.12012L4.76953 1.04102C4.52503 0.845455 4.2124 0.749023 3.9043 0.749023H3.90527L2.34375 0.74707ZM10.1533 0.74707C9.84518 0.74707 9.5326 0.844422 9.28809 1.04004C9.04067 1.23798 8.87207 1.53409 8.87207 1.87305V18.1016C8.87292 18.44 9.04184 18.7352 9.28906 18.9326C9.53345 19.1277 9.84556 19.2246 10.1533 19.2246H11.7158C11.9852 19.2245 12.2578 19.1504 12.4854 19.001L12.5801 18.9316C12.8274 18.7337 12.997 18.4385 12.9971 18.0996V1.87402C12.9971 1.57738 12.8671 1.31393 12.6689 1.12012L12.5801 1.04102C12.3662 0.869982 12.1005 0.774163 11.8311 0.75293L11.7158 0.749023L10.1533 0.74707Z" fill="#909090" stroke="#909090"/>
</svg>
