<svg width="28" height="28" viewBox="0 0 28 28" fill="none" xmlns="http://www.w3.org/2000/svg">
<g clip-path="url(#clip0_232_24)">
<path d="M14 17.5001H19.8333V23.3334H14V17.5001ZM22.1667 7.00008H21V4.66675H18.6667V7.00008H9.33333V4.66675H7V7.00008H5.83333C4.55 7.00008 3.5 8.05008 3.5 9.33342V25.6667C3.5 26.9501 4.55 28.0001 5.83333 28.0001H22.1667C23.45 28.0001 24.5 26.9501 24.5 25.6667V9.33342C24.5 8.05008 23.45 7.00008 22.1667 7.00008ZM22.1667 9.33342V11.6667H5.83333V9.33342H22.1667ZM5.83333 25.6667V14.0001H22.1667V25.6667H5.83333Z" fill="#909090"/>
</g>
<defs>
<clipPath id="clip0_232_24">
<rect width="28" height="28" fill="white"/>
</clipPath>
</defs>
</svg>
