<svg width="115" height="115" viewBox="0 0 115 115" fill="none" xmlns="http://www.w3.org/2000/svg">
<path fill-rule="evenodd" clip-rule="evenodd" d="M78.1247 41.6667C78.1247 47.192 75.9297 52.4911 72.0227 56.3981C68.1157 60.3051 62.8167 62.5 57.2913 62.5C51.766 62.5 46.467 60.3051 42.5599 56.3981C38.6529 52.4911 36.458 47.192 36.458 41.6667C36.458 36.1413 38.6529 30.8423 42.5599 26.9353C46.467 23.0283 51.766 20.8333 57.2913 20.8333C62.8167 20.8333 68.1157 23.0283 72.0227 26.9353C75.9297 30.8423 78.1247 36.1413 78.1247 41.6667ZM67.708 41.6667C67.708 44.4293 66.6105 47.0789 64.657 49.0324C62.7035 50.9859 60.054 52.0833 57.2913 52.0833C54.5287 52.0833 51.8792 50.9859 49.9256 49.0324C47.9721 47.0789 46.8747 44.4293 46.8747 41.6667C46.8747 38.904 47.9721 36.2545 49.9256 34.301C51.8792 32.3475 54.5287 31.25 57.2913 31.25C60.054 31.25 62.7035 32.3475 64.657 34.301C66.6105 36.2545 67.708 38.904 67.708 41.6667Z" fill="black"/>
<path fill-rule="evenodd" clip-rule="evenodd" d="M57.2917 0C25.651 0 0 25.651 0 57.2917C0 88.9323 25.651 114.583 57.2917 114.583C88.9323 114.583 114.583 88.9323 114.583 57.2917C114.583 25.651 88.9323 0 57.2917 0ZM10.4167 57.2917C10.4167 68.1771 14.1302 78.1979 20.3542 86.1562C24.7263 80.4173 30.3654 75.7664 36.8315 72.5663C43.2975 69.3662 50.4156 67.7037 57.6302 67.7083C64.752 67.7 71.7816 69.3182 78.183 72.4395C84.5843 75.5607 90.1884 80.1026 94.5677 85.7188C99.0805 79.8 102.119 72.8918 103.432 65.5656C104.745 58.2394 104.294 50.7059 102.117 43.5885C99.9404 36.471 96.1001 29.9742 90.914 24.6356C85.7279 19.297 79.3451 15.2701 72.2937 12.8881C65.2423 10.506 57.725 9.83735 50.3639 10.9374C43.0027 12.0374 36.0093 14.8744 29.9623 19.2138C23.9153 23.5532 18.9886 29.2702 15.5897 35.8916C12.1909 42.5131 10.4176 49.8488 10.4167 57.2917ZM57.2917 104.167C46.5308 104.184 36.0945 100.482 27.75 93.6875C31.1084 88.8782 35.5791 84.9516 40.7816 82.242C45.9842 79.5324 51.7644 78.1199 57.6302 78.125C63.4228 78.1199 69.133 79.4972 74.2864 82.1423C79.4398 84.7873 83.8876 88.6239 87.2604 93.3333C78.8514 100.349 68.2429 104.184 57.2917 104.167Z" fill="black"/>
</svg>
