<svg width="61" height="63" viewBox="0 0 61 63" fill="none" xmlns="http://www.w3.org/2000/svg">
<path d="M52.5704 8.50313C46.9958 3.28103 39.5014 0.0834961 31.2603 0.0834961C14.0418 0.0834961 0.083252 14.042 0.083252 31.2606C0.083252 48.4792 14.0418 62.4377 31.2603 62.4377C39.7995 62.4377 47.5369 59.0047 53.1676 53.4436L30.4999 30.5002L52.5704 8.50313Z" fill="#3E89CC" stroke="white" stroke-width="2" stroke-linejoin="round"/>
<path d="M54.8333 36.5837C58.193 36.5837 60.9167 33.86 60.9167 30.5003C60.9167 27.1407 58.193 24.417 54.8333 24.417C51.4737 24.417 48.75 27.1407 48.75 30.5003C48.75 33.86 51.4737 36.5837 54.8333 36.5837Z" fill="#3E89CC" stroke="white" stroke-width="2" stroke-linejoin="round"/>
<path d="M19.854 13.771V25.9377" stroke="white" stroke-width="2" stroke-linecap="round" stroke-linejoin="round"/>
<path d="M13.7708 19.8545H25.9374" stroke="white" stroke-width="2" stroke-linecap="round" stroke-linejoin="round"/>
</svg>
