<svg width="24" height="25" viewBox="0 0 24 25" fill="none" xmlns="http://www.w3.org/2000/svg">
<path d="M20.4654 3.5627C18.3272 1.5597 15.4527 0.333252 12.2917 0.333252C5.68732 0.333252 0.333374 5.6872 0.333374 12.2916C0.333374 18.896 5.68732 24.2499 12.2917 24.2499C15.567 24.2499 18.5348 22.9332 20.6945 20.8001L12 11.9999L20.4654 3.5627Z" fill="white" fill-opacity="0.03" stroke="#909090" stroke-width="2" stroke-linejoin="round"/>
<path d="M21.3333 14.3332C22.622 14.3332 23.6667 13.2885 23.6667 11.9998C23.6667 10.7112 22.622 9.6665 21.3333 9.6665C20.0447 9.6665 19 10.7112 19 11.9998C19 13.2885 20.0447 14.3332 21.3333 14.3332Z" fill="white" fill-opacity="0.03" stroke="#909090" stroke-width="2" stroke-linejoin="round"/>
<path d="M7.91675 5.58325V10.2499" stroke="#909090" stroke-width="2" stroke-linecap="round" stroke-linejoin="round"/>
<path d="M5.58337 7.9165H10.25" stroke="#909090" stroke-width="2" stroke-linecap="round" stroke-linejoin="round"/>
</svg>
