<svg width="51" height="49" viewBox="0 0 51 49" fill="none" xmlns="http://www.w3.org/2000/svg">
<path d="M0.75 5.78345C0.75 4.45736 1.27678 3.1856 2.21447 2.24791C3.15215 1.31023 4.42392 0.783447 5.75 0.783447H45.75C47.0761 0.783447 48.3479 1.31023 49.2855 2.24791C50.2232 3.1856 50.75 4.45736 50.75 5.78345V33.2834C50.75 34.6095 50.2232 35.8813 49.2855 36.819C48.3479 37.7567 47.0761 38.2834 45.75 38.2834H28.25V43.2834H35.75C36.413 43.2834 37.0489 43.5468 37.5178 44.0157C37.9866 44.4845 38.25 45.1204 38.25 45.7834C38.25 46.4465 37.9866 47.0824 37.5178 47.5512C37.0489 48.0201 36.413 48.2834 35.75 48.2834H15.75C15.087 48.2834 14.4511 48.0201 13.9822 47.5512C13.5134 47.0824 13.25 46.4465 13.25 45.7834C13.25 45.1204 13.5134 44.4845 13.9822 44.0157C14.4511 43.5468 15.087 43.2834 15.75 43.2834H23.25V38.2834H5.75C4.42392 38.2834 3.15215 37.7567 2.21447 36.819C1.27678 35.8813 0.75 34.6095 0.75 33.2834V5.78345ZM45.75 33.2834V5.78345H5.75V33.2834H45.75Z" fill="black"/>
</svg>
