<svg width="25" height="24" viewBox="0 0 25 24" fill="none" xmlns="http://www.w3.org/2000/svg">
<path fill-rule="evenodd" clip-rule="evenodd" d="M17.045 8.72716C17.045 9.88447 16.5661 10.9944 15.7137 11.8127C14.8612 12.6311 13.7051 13.0908 12.4996 13.0908C11.294 13.0908 10.1379 12.6311 9.28543 11.8127C8.433 10.9944 7.9541 9.88447 7.9541 8.72716C7.9541 7.56985 8.433 6.45995 9.28543 5.6416C10.1379 4.82326 11.294 4.36353 12.4996 4.36353C13.7051 4.36353 14.8612 4.82326 15.7137 5.6416C16.5661 6.45995 17.045 7.56985 17.045 8.72716ZM14.7723 8.72716C14.7723 9.30582 14.5328 9.86077 14.1066 10.2699C13.6804 10.6791 13.1023 10.909 12.4996 10.909C11.8968 10.909 11.3187 10.6791 10.8925 10.2699C10.4663 9.86077 10.2268 9.30582 10.2268 8.72716C10.2268 8.14851 10.4663 7.59355 10.8925 7.18438C11.3187 6.77521 11.8968 6.54534 12.4996 6.54534C13.1023 6.54534 13.6804 6.77521 14.1066 7.18438C14.5328 7.59355 14.7723 8.14851 14.7723 8.72716Z" fill="#909090"/>
<path fill-rule="evenodd" clip-rule="evenodd" d="M12.5 0C5.59659 0 0 5.37273 0 12C0 18.6273 5.59659 24 12.5 24C19.4034 24 25 18.6273 25 12C25 5.37273 19.4034 0 12.5 0ZM2.27273 12C2.27273 14.28 3.08295 16.3789 4.44091 18.0458C5.39482 16.8438 6.62517 15.8696 8.03595 15.1993C9.44673 14.5291 10.9998 14.1808 12.5739 14.1818C14.1277 14.1801 15.6614 14.519 17.0581 15.1728C18.4548 15.8265 19.6775 16.7779 20.633 17.9542C21.6176 16.7145 22.2805 15.2675 22.5669 13.733C22.8534 12.1985 22.755 10.6206 22.2801 9.1298C21.8052 7.63902 20.9673 6.27823 19.8358 5.16004C18.7043 4.04185 17.3116 3.19839 15.7732 2.69946C14.2347 2.20054 12.5945 2.06048 10.9885 2.29088C9.38241 2.52128 7.85658 3.11552 6.53724 4.02442C5.21789 4.93333 4.14297 6.13077 3.4014 7.51767C2.65983 8.90457 2.27293 10.4411 2.27273 12ZM12.5 21.8182C10.1522 21.8218 7.87516 21.0464 6.05455 19.6233C6.78728 18.6159 7.76272 17.7935 8.89781 17.226C10.0329 16.6584 11.294 16.3626 12.5739 16.3636C13.8377 16.3626 15.0836 16.651 16.2079 17.2051C17.3323 17.7591 18.3028 18.5627 19.0386 19.5491C17.2039 21.0185 14.8894 21.8218 12.5 21.8182Z" fill="#909090"/>
</svg>
